<svg width="381.5" height="59.901" viewBox="0 0 381.5 59.901" xmlns="http://www.w3.org/2000/svg"><g id="svgGroup" stroke-linecap="round" fill-rule="evenodd" font-size="9pt" stroke="#fc0e0e" stroke-width="0.25mm" fill="none" style="stroke:#fc0e0e;stroke-width:0.25mm;fill:none"><path d="M 291.4 59.9 L 260.3 59.9 A 26.539 26.539 0 0 1 255.854 59.555 Q 250.244 58.599 247.6 55 A 17.434 17.434 0 0 1 244.845 49.1 Q 244 45.926 244 42 L 244 0.1 L 257.2 0.1 L 257.2 42.4 Q 257.2 47.1 259.5 48.7 Q 261.8 50.3 265.2 50.3 L 286.4 50.3 A 10.483 10.483 0 0 0 289.574 49.835 A 9.093 9.093 0 0 0 292 48.65 A 4.873 4.873 0 0 0 293.723 46.455 Q 294.082 45.599 294.251 44.509 A 13.838 13.838 0 0 0 294.4 42.4 L 294.4 0.1 L 307.6 0.1 L 307.6 42 A 32.849 32.849 0 0 1 307.313 46.457 Q 306.99 48.814 306.304 50.831 A 19.634 19.634 0 0 1 306.1 51.4 Q 304.6 55.4 301.1 57.65 Q 297.6 59.9 291.4 59.9 Z M 355.4 58.9 L 342.2 58.9 L 342.1 9.6 L 316.1 9.6 L 316.1 0 L 381.5 0 L 381.5 9.6 L 355.4 9.6 L 355.4 58.9 Z M 14.6 58.9 L 0 58.9 L 29.3 0.1 L 49 0.1 L 78.2 58.9 L 62.8 58.9 L 56.9 46.2 L 21.1 46.2 L 14.6 58.9 Z M 133.7 58.9 L 86.2 58.9 L 86.2 0 L 129.7 0 A 37.329 37.329 0 0 1 134.584 0.297 Q 139.973 1.011 143.028 3.441 A 10.709 10.709 0 0 1 143.4 3.75 A 13.189 13.189 0 0 1 146.253 7.173 A 11.214 11.214 0 0 1 147.7 12.8 L 147.7 15.8 A 15.827 15.827 0 0 1 147.454 18.672 Q 147.044 20.894 145.95 22.55 A 15.592 15.592 0 0 1 144.66 24.255 Q 143.923 25.093 143.147 25.682 A 7.725 7.725 0 0 1 142.2 26.3 A 14.438 14.438 0 0 1 146.79 28.686 A 13.288 13.288 0 0 1 149.2 31.15 A 12.283 12.283 0 0 1 151.266 35.567 Q 151.7 37.27 151.781 39.264 A 22.977 22.977 0 0 1 151.8 40.2 L 151.8 42 Q 151.8 45 151.1 48 Q 150.4 51 148.45 53.45 Q 146.5 55.9 142.95 57.4 A 16.726 16.726 0 0 1 139.848 58.343 Q 137.173 58.9 133.7 58.9 Z M 212.3 58.9 L 183.1 58.9 A 39.916 39.916 0 0 1 179.018 58.705 Q 176.967 58.494 175.259 58.053 A 15.973 15.973 0 0 1 172.1 56.9 Q 168.1 54.9 166.45 50.9 Q 164.8 46.9 164.8 41 L 164.8 17.9 Q 164.8 13.347 165.786 9.933 A 18.213 18.213 0 0 1 166.4 8.15 A 11.391 11.391 0 0 1 171.874 2.216 A 14.41 14.41 0 0 1 172 2.15 A 15.855 15.855 0 0 1 175.355 0.921 Q 176.981 0.511 178.917 0.306 A 39.797 39.797 0 0 1 183.1 0.1 L 212.3 0.1 A 38.809 38.809 0 0 1 216.377 0.301 Q 218.391 0.514 220.066 0.955 A 15.407 15.407 0 0 1 223.25 2.15 Q 227.2 4.2 228.85 8.15 A 19.606 19.606 0 0 1 229.978 11.961 Q 230.5 14.638 230.5 17.9 L 230.5 41 Q 230.5 46.758 228.83 50.697 A 13.907 13.907 0 0 1 226.6 54.35 A 10.869 10.869 0 0 1 222.561 57.211 Q 219.045 58.725 213.589 58.882 A 44.792 44.792 0 0 1 212.3 58.9 Z M 186 49.3 L 209.5 49.3 Q 212.307 49.3 214.164 48.207 A 6.275 6.275 0 0 0 215.25 47.4 A 6.265 6.265 0 0 0 217.168 43.786 A 9.104 9.104 0 0 0 217.3 42.2 L 217.3 16.7 A 6.65 6.65 0 0 0 215.297 11.847 A 8.212 8.212 0 0 0 215.2 11.75 A 7 7 0 0 0 211.749 9.932 A 10.353 10.353 0 0 0 209.5 9.7 L 186 9.7 A 11.091 11.091 0 0 0 183.509 9.965 A 7.569 7.569 0 0 0 180.2 11.6 A 6.241 6.241 0 0 0 178.027 16.004 A 8.714 8.714 0 0 0 178 16.7 L 178 42.2 A 8.619 8.619 0 0 0 178.254 44.355 A 5.93 5.93 0 0 0 180.15 47.45 A 7.268 7.268 0 0 0 183.047 48.943 Q 184.125 49.233 185.401 49.288 A 14.057 14.057 0 0 0 186 49.3 Z M 99.4 33.4 L 99.4 49.3 L 130.9 49.3 A 12.125 12.125 0 0 0 133.094 49.115 Q 135.309 48.707 136.65 47.4 A 6.278 6.278 0 0 0 138.41 44.126 A 9.243 9.243 0 0 0 138.6 42.2 L 138.6 40.4 A 6.777 6.777 0 0 0 138.099 37.757 A 6.36 6.36 0 0 0 136.3 35.35 Q 134.199 33.569 129.593 33.415 A 26.756 26.756 0 0 0 128.7 33.4 L 99.4 33.4 Z M 99.4 9.6 L 99.4 23.6 L 127.6 23.6 Q 130.137 23.673 131.728 22.721 A 4.779 4.779 0 0 0 132.8 21.85 A 6.395 6.395 0 0 0 134.458 18.055 A 8.542 8.542 0 0 0 134.5 17.2 L 134.5 16.2 A 6.868 6.868 0 0 0 133.682 12.989 A 9.219 9.219 0 0 0 132.9 11.75 Q 131.342 9.657 127.131 9.602 A 17.559 17.559 0 0 0 126.9 9.6 L 99.4 9.6 Z M 38.5 9.1 L 24.7 36.4 L 53.2 36.4 L 39.5 9.1 L 38.5 9.1 Z" vector-effect="non-scaling-stroke"/></g></svg>