<svg width="507.301" height="58.901" viewBox="0 0 507.301 58.901" xmlns="http://www.w3.org/2000/svg"><g id="svgGroup" stroke-linecap="round" fill-rule="evenodd" font-size="9pt" stroke="#fc0e0e" stroke-width="0.25mm" fill="none" style="stroke:#fc0e0e;stroke-width:0.25mm;fill:none"><path d="M 170.401 58.9 L 157.201 58.9 L 157.201 8.1 L 156.201 0.1 L 170.601 0.1 L 204.601 35.7 L 208.501 41.1 L 209.601 41.1 L 209.601 0.1 L 222.801 0.1 L 222.801 58.9 L 210.101 58.9 L 175.301 22.7 L 171.401 18 L 170.401 18 L 170.401 58.9 Z M 46.101 58.9 L 18.301 58.9 A 40.892 40.892 0 0 1 14.166 58.705 Q 9.951 58.275 7.201 56.9 Q 3.201 54.9 1.601 50.9 A 20.503 20.503 0 0 1 0.507 47.037 Q 0.159 45.168 0.05 43.016 A 39.956 39.956 0 0 1 0.001 41 L 0.001 18.7 A 34.06 34.06 0 0 1 0.36 13.572 Q 0.76 10.95 1.607 8.852 A 13.579 13.579 0 0 1 4.301 4.55 Q 7.505 1.16 13.707 0.296 A 33.368 33.368 0 0 1 18.301 0 L 48.401 0 Q 54.38 0 57.919 0.564 A 23.437 23.437 0 0 1 58.951 0.75 A 27.36 27.36 0 0 1 60.097 1.01 Q 62.601 1.638 62.601 2.3 L 60.601 10.6 Q 59.01 10.32 51.602 9.995 A 565.055 565.055 0 0 0 50.551 9.95 Q 44.158 9.682 33.339 9.62 A 1215.602 1215.602 0 0 0 26.301 9.6 L 21.201 9.6 Q 14.345 9.6 13.364 14.815 A 10.211 10.211 0 0 0 13.201 16.7 L 13.201 42.2 A 10.606 10.606 0 0 0 13.389 44.265 Q 13.63 45.479 14.18 46.42 A 5.618 5.618 0 0 0 14.951 47.45 Q 16.572 49.164 20.552 49.29 A 20.452 20.452 0 0 0 21.201 49.3 L 25.301 49.3 Q 41.901 49.3 51.051 48.95 Q 60.201 48.6 62.401 48.2 L 66.501 54.8 A 0.516 0.516 0 0 1 66.404 55.072 Q 66.174 55.429 65.398 55.952 A 13.588 13.588 0 0 1 64.851 56.3 A 7.255 7.255 0 0 1 63.78 56.818 Q 62.605 57.285 60.761 57.703 A 46.391 46.391 0 0 1 58.801 58.1 Q 55.126 58.769 48.73 58.879 A 152.941 152.941 0 0 1 46.101 58.9 Z M 417.501 58.9 L 389.701 58.9 A 40.892 40.892 0 0 1 385.566 58.705 Q 381.351 58.275 378.601 56.9 Q 374.601 54.9 373.001 50.9 A 20.503 20.503 0 0 1 371.907 47.037 Q 371.559 45.168 371.45 43.016 A 39.956 39.956 0 0 1 371.401 41 L 371.401 18.7 A 34.06 34.06 0 0 1 371.76 13.572 Q 372.16 10.95 373.007 8.852 A 13.579 13.579 0 0 1 375.701 4.55 Q 378.905 1.16 385.107 0.296 A 33.368 33.368 0 0 1 389.701 0 L 419.801 0 Q 425.78 0 429.319 0.564 A 23.437 23.437 0 0 1 430.351 0.75 A 27.36 27.36 0 0 1 431.497 1.01 Q 434.001 1.638 434.001 2.3 L 432.001 10.6 Q 430.41 10.32 423.002 9.995 A 565.055 565.055 0 0 0 421.951 9.95 Q 415.558 9.682 404.739 9.62 A 1215.602 1215.602 0 0 0 397.701 9.6 L 392.601 9.6 Q 385.745 9.6 384.764 14.815 A 10.211 10.211 0 0 0 384.601 16.7 L 384.601 42.2 A 10.606 10.606 0 0 0 384.789 44.265 Q 385.03 45.479 385.58 46.42 A 5.618 5.618 0 0 0 386.351 47.45 Q 387.972 49.164 391.952 49.29 A 20.452 20.452 0 0 0 392.601 49.3 L 396.701 49.3 Q 413.301 49.3 422.451 48.95 Q 431.601 48.6 433.801 48.2 L 437.901 54.8 A 0.516 0.516 0 0 1 437.804 55.072 Q 437.574 55.429 436.798 55.952 A 13.588 13.588 0 0 1 436.251 56.3 A 7.255 7.255 0 0 1 435.18 56.818 Q 434.005 57.285 432.161 57.703 A 46.391 46.391 0 0 1 430.201 58.1 Q 426.526 58.769 420.13 58.879 A 152.941 152.941 0 0 1 417.501 58.9 Z M 272.101 58.9 L 258.901 58.9 L 258.801 9.6 L 232.801 9.6 L 232.801 0 L 298.201 0 L 298.201 9.6 L 272.101 9.6 L 272.101 58.9 Z M 481.201 58.9 L 468.001 58.9 L 467.901 9.6 L 441.901 9.6 L 441.901 0 L 507.301 0 L 507.301 9.6 L 481.201 9.6 L 481.201 58.9 Z M 302.801 58.9 L 288.201 58.9 L 317.501 0.1 L 337.201 0.1 L 366.401 58.9 L 351.001 58.9 L 345.101 46.2 L 309.301 46.2 L 302.801 58.9 Z M 123.001 58.9 L 93.801 58.9 A 39.916 39.916 0 0 1 89.719 58.705 Q 87.667 58.494 85.959 58.053 A 15.973 15.973 0 0 1 82.801 56.9 Q 78.801 54.9 77.151 50.9 Q 75.501 46.9 75.501 41 L 75.501 17.9 Q 75.501 13.346 76.487 9.933 A 18.213 18.213 0 0 1 77.101 8.15 A 11.391 11.391 0 0 1 82.574 2.216 A 14.41 14.41 0 0 1 82.701 2.15 A 15.855 15.855 0 0 1 86.056 0.921 Q 87.682 0.511 89.618 0.306 A 39.797 39.797 0 0 1 93.801 0.1 L 123.001 0.1 A 38.809 38.809 0 0 1 127.078 0.301 Q 129.091 0.514 130.767 0.955 A 15.407 15.407 0 0 1 133.951 2.15 Q 137.901 4.2 139.551 8.15 A 19.606 19.606 0 0 1 140.678 11.961 Q 141.201 14.638 141.201 17.9 L 141.201 41 Q 141.201 46.758 139.531 50.697 A 13.907 13.907 0 0 1 137.301 54.35 A 10.869 10.869 0 0 1 133.262 57.211 Q 129.745 58.725 124.29 58.882 A 44.792 44.792 0 0 1 123.001 58.9 Z M 96.701 49.3 L 120.201 49.3 Q 123.007 49.3 124.864 48.207 A 6.275 6.275 0 0 0 125.951 47.4 A 6.265 6.265 0 0 0 127.868 43.786 A 9.104 9.104 0 0 0 128.001 42.2 L 128.001 16.7 A 6.65 6.65 0 0 0 125.998 11.847 A 8.212 8.212 0 0 0 125.901 11.75 A 7 7 0 0 0 122.45 9.932 A 10.353 10.353 0 0 0 120.201 9.7 L 96.701 9.7 A 11.091 11.091 0 0 0 94.209 9.965 A 7.569 7.569 0 0 0 90.901 11.6 A 6.241 6.241 0 0 0 88.728 16.004 A 8.714 8.714 0 0 0 88.701 16.7 L 88.701 42.2 A 8.619 8.619 0 0 0 88.955 44.355 A 5.93 5.93 0 0 0 90.851 47.45 A 7.268 7.268 0 0 0 93.748 48.943 Q 94.826 49.233 96.101 49.288 A 14.057 14.057 0 0 0 96.701 49.3 Z M 326.701 9.1 L 312.901 36.4 L 341.401 36.4 L 327.701 9.1 L 326.701 9.1 Z" vector-effect="non-scaling-stroke"/></g></svg>