<svg width="286.9" height="58.8" viewBox="0 0 286.9 58.8" xmlns="http://www.w3.org/2000/svg"><g id="svgGroup" stroke-linecap="round" fill-rule="evenodd" font-size="9pt" stroke="#fc0e0e" stroke-width="0.25mm" fill="none" style="stroke:#fc0e0e;stroke-width:0.25mm;fill:none"><path d="M 155.8 58.8 L 143.6 58.8 L 143.6 14 L 151.8 14 L 154.3 15.2 A 59.142 59.142 0 0 1 156.658 14.846 Q 157.716 14.707 158.902 14.583 A 119.17 119.17 0 0 1 161.4 14.35 A 90.228 90.228 0 0 1 164.775 14.137 Q 166.65 14.051 168.769 14.019 A 174.15 174.15 0 0 1 171.4 14 L 176.4 14 Q 179.3 14 182 14.75 A 12.744 12.744 0 0 1 183.621 15.312 Q 185.127 15.959 186 16.9 A 16.543 16.543 0 0 1 188.024 16.065 Q 190.181 15.325 193.2 14.8 A 45.383 45.383 0 0 1 196.693 14.345 Q 200.344 14 205.2 14 L 210.2 14 A 28.789 28.789 0 0 1 213.033 14.13 Q 216.023 14.427 217.9 15.4 Q 220.6 16.8 221.75 18.9 A 12.322 12.322 0 0 1 222.836 21.545 A 10.672 10.672 0 0 1 223.15 23.15 A 45.123 45.123 0 0 1 223.302 24.671 Q 223.362 25.397 223.385 26.029 A 21.01 21.01 0 0 1 223.4 26.8 L 223.4 58.8 L 211.2 58.8 L 211.2 26.6 Q 211.2 22.889 207.068 22.621 A 10.332 10.332 0 0 0 206.4 22.6 L 192.4 22.6 A 10.071 10.071 0 0 0 191.673 22.624 Q 190.652 22.698 190.2 23 A 1.07 1.07 0 0 0 189.84 23.429 Q 189.653 23.806 189.612 24.425 A 5.602 5.602 0 0 0 189.6 24.8 L 189.6 58.8 L 177.4 58.8 L 177.4 26.6 Q 177.4 22.889 173.268 22.621 A 10.332 10.332 0 0 0 172.6 22.6 L 158.8 22.6 Q 157.083 22.6 156.469 22.886 A 1.029 1.029 0 0 0 156.35 22.95 A 0.866 0.866 0 0 0 156.054 23.292 Q 155.803 23.775 155.8 24.779 A 8.091 8.091 0 0 0 155.8 24.8 L 155.8 58.8 Z M 13.2 58.8 L 0 58.8 L 0 0 L 13.2 0 L 13.2 24.4 L 52.4 24.4 L 52.4 0 L 65.6 0 L 65.6 58.8 L 52.4 58.8 L 52.4 34 L 13.2 34 L 13.2 58.8 Z M 267.2 58.8 L 247.1 58.8 Q 242.338 58.8 239.662 57.621 A 8.585 8.585 0 0 1 239.4 57.5 A 11.285 11.285 0 0 1 237.593 56.427 Q 236.6 55.694 235.947 54.808 A 6.432 6.432 0 0 1 235.55 54.2 Q 234.4 52.2 234.15 50 Q 233.9 47.8 233.9 46 L 233.9 26.8 Q 233.9 25.769 234.018 24.43 A 46.545 46.545 0 0 1 234.15 23.15 A 11.205 11.205 0 0 1 235.09 19.821 A 13.391 13.391 0 0 1 235.55 18.9 A 7.386 7.386 0 0 1 237.255 16.839 Q 238.037 16.169 239.062 15.605 A 13.575 13.575 0 0 1 239.45 15.4 A 10.937 10.937 0 0 1 241.759 14.561 Q 242.879 14.28 244.214 14.14 A 27.722 27.722 0 0 1 247.1 14 L 268.6 14 Q 274.841 14 278.534 15.118 A 15.702 15.702 0 0 1 278.95 15.25 A 11.727 11.727 0 0 1 281.361 16.349 A 7.955 7.955 0 0 1 284.25 19.3 A 10.983 10.983 0 0 1 285.254 21.889 Q 285.8 24.009 285.8 26.8 L 285.8 41.6 L 268.3 41.6 Q 260.249 41.6 254.879 41.28 A 110.569 110.569 0 0 1 253.65 41.2 Q 248 40.8 246.1 40.7 L 246.1 46.2 Q 246.01 49.816 250.005 50.163 A 10.351 10.351 0 0 0 250.9 50.2 L 256 50.2 Q 261.4 50.2 266.55 50.05 Q 271.7 49.9 276 49.65 Q 279.846 49.426 282.333 49.243 A 186.803 186.803 0 0 0 282.9 49.2 L 286.9 55.7 Q 286.9 58.489 270.952 58.769 A 214.459 214.459 0 0 1 267.2 58.8 Z M 119.4 58.8 L 91.8 58.8 Q 85.1 58.8 81.85 56.1 Q 79.2 53.898 78.711 49.436 A 19.624 19.624 0 0 1 78.6 47.3 L 78.6 26.8 Q 78.6 25.769 78.718 24.43 A 46.545 46.545 0 0 1 78.85 23.15 A 11.205 11.205 0 0 1 79.79 19.821 A 13.391 13.391 0 0 1 80.25 18.9 A 7.386 7.386 0 0 1 81.955 16.839 Q 82.737 16.169 83.762 15.605 A 13.575 13.575 0 0 1 84.15 15.4 A 10.937 10.937 0 0 1 86.459 14.561 Q 87.579 14.28 88.914 14.14 A 27.722 27.722 0 0 1 91.8 14 L 119.4 14 A 28.789 28.789 0 0 1 122.233 14.13 Q 125.223 14.427 127.1 15.4 Q 129.8 16.8 130.95 18.9 A 12.322 12.322 0 0 1 132.036 21.545 A 10.672 10.672 0 0 1 132.35 23.15 A 45.123 45.123 0 0 1 132.502 24.671 Q 132.562 25.397 132.585 26.029 A 21.01 21.01 0 0 1 132.6 26.8 L 132.6 46 Q 132.6 47.8 132.35 50 A 10.362 10.362 0 0 1 130.909 54.184 A 11.854 11.854 0 0 1 130.9 54.2 A 7.431 7.431 0 0 1 129.17 56.153 Q 128.389 56.784 127.381 57.309 A 13.498 13.498 0 0 1 127 57.5 A 10.896 10.896 0 0 1 124.884 58.24 Q 122.687 58.782 119.602 58.799 A 36.435 36.435 0 0 1 119.4 58.8 Z M 95.6 50.2 L 115.6 50.2 A 8.765 8.765 0 0 0 117.419 50.029 Q 120.102 49.457 120.449 46.977 A 5.618 5.618 0 0 0 120.5 46.2 L 120.5 26.6 A 4.61 4.61 0 0 0 120.195 24.853 Q 119.277 22.6 115.6 22.6 L 95.6 22.6 A 8.416 8.416 0 0 0 93.818 22.771 Q 91.246 23.331 90.866 25.717 A 5.613 5.613 0 0 0 90.8 26.6 L 90.8 46.2 Q 90.8 49.911 94.932 50.179 A 10.332 10.332 0 0 0 95.6 50.2 Z M 246.1 26.6 L 246.1 33 L 273.6 33 L 273.6 26.6 Q 273.6 24.6 273.15 23.8 A 1.24 1.24 0 0 0 272.713 23.368 Q 272.059 22.957 270.628 22.812 A 12.483 12.483 0 0 0 270.5 22.8 Q 268.3 22.6 263 22.6 L 250.9 22.6 A 8.416 8.416 0 0 0 249.118 22.771 Q 246.546 23.331 246.166 25.717 A 5.613 5.613 0 0 0 246.1 26.6 Z" vector-effect="non-scaling-stroke"/></g></svg>