<svg width="516.7" height="59.9" viewBox="0 0 516.7 59.9" xmlns="http://www.w3.org/2000/svg"><g id="svgGroup" stroke-linecap="round" fill-rule="evenodd" font-size="9pt" stroke="#fc0e0e" stroke-width="0.25mm" fill="none" style="stroke:#fc0e0e;stroke-width:0.25mm;fill:none"><path d="M 359.8 58.9 L 305.2 58.9 L 305.2 0.1 L 367.4 0.1 L 367.4 9.7 L 318.4 9.7 L 318.4 23.5 L 355.8 23.5 L 355.8 33.4 L 318.4 33.4 L 318.4 49.3 L 367.8 49.3 L 371.8 57.8 Q 371.8 58.2 369.1 58.55 Q 366.4 58.9 359.8 58.9 Z M 426.9 58.9 L 399.1 58.9 A 40.892 40.892 0 0 1 394.965 58.705 Q 390.75 58.275 388 56.9 Q 384 54.9 382.4 50.9 A 20.503 20.503 0 0 1 381.306 47.037 Q 380.958 45.168 380.849 43.016 A 39.956 39.956 0 0 1 380.8 41 L 380.8 18.7 A 34.06 34.06 0 0 1 381.159 13.572 Q 381.56 10.95 382.406 8.852 A 13.579 13.579 0 0 1 385.1 4.55 Q 388.304 1.16 394.506 0.296 A 33.368 33.368 0 0 1 399.1 0 L 429.2 0 Q 435.18 0 438.719 0.564 A 23.437 23.437 0 0 1 439.75 0.75 A 27.36 27.36 0 0 1 440.897 1.01 Q 443.4 1.638 443.4 2.3 L 441.4 10.6 Q 439.81 10.32 432.401 9.995 A 565.055 565.055 0 0 0 431.35 9.95 Q 424.957 9.682 414.138 9.62 A 1215.602 1215.602 0 0 0 407.1 9.6 L 402 9.6 Q 395.144 9.6 394.164 14.815 A 10.211 10.211 0 0 0 394 16.7 L 394 42.2 A 10.606 10.606 0 0 0 394.188 44.265 Q 394.43 45.479 394.979 46.42 A 5.618 5.618 0 0 0 395.75 47.45 Q 397.371 49.164 401.352 49.29 A 20.452 20.452 0 0 0 402 49.3 L 406.1 49.3 Q 422.7 49.3 431.85 48.95 Q 441 48.6 443.2 48.2 L 447.3 54.8 A 0.516 0.516 0 0 1 447.203 55.072 Q 446.973 55.429 446.198 55.952 A 13.588 13.588 0 0 1 445.65 56.3 A 7.255 7.255 0 0 1 444.579 56.818 Q 443.405 57.285 441.561 57.703 A 46.391 46.391 0 0 1 439.6 58.1 Q 435.925 58.769 429.53 58.879 A 152.941 152.941 0 0 1 426.9 58.9 Z M 123.8 52.5 L 116.6 45.3 A 30.11 30.11 0 0 0 111.075 40.803 A 25.781 25.781 0 0 0 106.95 38.7 Q 101.7 36.6 93.8 36.6 L 90.7 36.6 L 90.7 58.9 L 77.5 58.9 L 77.5 8.1 L 76.5 0 L 120.8 0 A 39.21 39.21 0 0 1 124.531 0.166 Q 126.377 0.343 127.917 0.709 A 15.326 15.326 0 0 1 130.85 1.7 Q 134.466 3.385 136.217 6.099 A 9.81 9.81 0 0 1 136.25 6.15 Q 138 8.9 138.5 12 A 39.37 39.37 0 0 1 138.941 15.94 A 33.174 33.174 0 0 1 139 17.9 L 139 19.8 A 19.112 19.112 0 0 1 138.855 22.087 Q 138.705 23.329 138.4 24.7 A 15.246 15.246 0 0 1 136.969 28.53 A 18.491 18.491 0 0 1 136.1 30 A 12.778 12.778 0 0 1 133.244 33.068 A 16.565 16.565 0 0 1 131.25 34.4 Q 128.718 35.848 124.925 36.325 A 29.085 29.085 0 0 1 123 36.5 Q 124.241 37.168 126.119 38.52 A 60.431 60.431 0 0 1 126.3 38.65 A 119.136 119.136 0 0 1 129.121 40.762 A 139.083 139.083 0 0 1 130.45 41.8 Q 132.6 43.5 134.4 44.9 Q 135.87 46.044 136.807 46.654 A 12.691 12.691 0 0 0 137.2 46.9 A 40.06 40.06 0 0 0 139.788 48.293 Q 141.85 49.3 143.6 49.8 Q 146.338 50.583 148.12 50.696 A 10.297 10.297 0 0 0 148.2 50.7 A 305.428 305.428 0 0 0 148.822 50.734 Q 149.89 50.791 150.216 50.799 A 3.675 3.675 0 0 0 150.3 50.8 L 148.3 58.9 Q 147.621 59.127 146.261 59.381 A 49.397 49.397 0 0 1 145.3 59.55 Q 143.2 59.9 140.4 59.9 Q 136.4 59.9 132.55 58.65 A 13.764 13.764 0 0 1 129.812 57.379 Q 127.265 55.872 124.334 53.026 A 50.21 50.21 0 0 1 123.8 52.5 Z M 490.6 58.9 L 477.4 58.9 L 477.3 9.6 L 451.3 9.6 L 451.3 0 L 516.7 0 L 516.7 9.6 L 490.6 9.6 L 490.6 58.9 Z M 14.2 58.9 L 1 58.9 L 1 8.1 L 0 0 L 44.3 0 A 39.21 39.21 0 0 1 48.031 0.166 Q 49.877 0.343 51.417 0.709 A 15.326 15.326 0 0 1 54.35 1.7 Q 57.966 3.385 59.717 6.099 A 9.81 9.81 0 0 1 59.75 6.15 Q 61.5 8.9 62 12 A 39.37 39.37 0 0 1 62.441 15.94 A 33.174 33.174 0 0 1 62.5 17.9 L 62.5 23.8 Q 62.5 26.1 61.8 28.95 Q 61.1 31.8 59.2 34.45 A 12.505 12.505 0 0 1 56.435 37.214 A 17.37 17.37 0 0 1 53.7 38.85 A 15.482 15.482 0 0 1 50.412 39.983 Q 48.786 40.359 46.872 40.506 A 33.655 33.655 0 0 1 44.3 40.6 L 34.1 40.6 Q 27.8 40.6 22.35 40.3 A 954.39 954.39 0 0 1 19.797 40.157 Q 17.341 40.015 15.617 39.9 A 198.077 198.077 0 0 1 14.2 39.8 L 14.2 58.9 Z M 205.8 58.9 L 176.6 58.9 A 39.916 39.916 0 0 1 172.518 58.705 Q 170.467 58.494 168.759 58.053 A 15.973 15.973 0 0 1 165.6 56.9 Q 161.6 54.9 159.95 50.9 Q 158.3 46.9 158.3 41 L 158.3 17.9 Q 158.3 13.346 159.286 9.933 A 18.213 18.213 0 0 1 159.9 8.15 A 11.391 11.391 0 0 1 165.374 2.216 A 14.41 14.41 0 0 1 165.5 2.15 A 15.855 15.855 0 0 1 168.855 0.921 Q 170.481 0.511 172.417 0.306 A 39.797 39.797 0 0 1 176.6 0.1 L 205.8 0.1 A 38.809 38.809 0 0 1 209.877 0.301 Q 211.891 0.514 213.566 0.955 A 15.407 15.407 0 0 1 216.75 2.15 Q 220.7 4.2 222.35 8.15 A 19.606 19.606 0 0 1 223.478 11.961 Q 224 14.638 224 17.9 L 224 41 Q 224 46.758 222.33 50.697 A 13.907 13.907 0 0 1 220.1 54.35 A 10.869 10.869 0 0 1 216.061 57.211 Q 212.545 58.725 207.089 58.882 A 44.792 44.792 0 0 1 205.8 58.9 Z M 271.1 58.9 L 258.2 58.9 Q 251 58.9 245.05 58.55 A 84.959 84.959 0 0 1 241.566 58.278 Q 238.228 57.943 235.879 57.381 A 24.881 24.881 0 0 1 235.55 57.3 Q 232.032 56.408 232 54.829 A 1.434 1.434 0 0 1 232 54.8 L 237 47.1 A 15.674 15.674 0 0 0 239.26 47.894 Q 241.633 48.545 244.945 48.841 A 51.021 51.021 0 0 0 245.05 48.85 A 95.937 95.937 0 0 0 248.596 49.088 Q 252.573 49.286 257.931 49.299 A 312.498 312.498 0 0 0 258.7 49.3 L 268.3 49.3 A 15.249 15.249 0 0 0 270.389 49.168 Q 272.723 48.844 273.925 47.725 A 3.798 3.798 0 0 0 274.5 47.05 A 8.578 8.578 0 0 0 276 42.2 L 276 8.1 L 275.2 0.1 L 289.2 0.1 L 289.2 41 A 34.677 34.677 0 0 1 288.826 46.2 A 27.497 27.497 0 0 1 287.95 50.1 A 11.181 11.181 0 0 1 282.97 56.477 A 14.19 14.19 0 0 1 282.85 56.55 A 13.009 13.009 0 0 1 279.765 57.876 Q 276.787 58.76 272.493 58.881 A 49.523 49.523 0 0 1 271.1 58.9 Z M 179.5 49.3 L 203 49.3 Q 205.807 49.3 207.664 48.207 A 6.275 6.275 0 0 0 208.75 47.4 A 6.265 6.265 0 0 0 210.668 43.786 A 9.104 9.104 0 0 0 210.8 42.2 L 210.8 16.7 A 6.65 6.65 0 0 0 208.797 11.847 A 8.212 8.212 0 0 0 208.7 11.75 A 7 7 0 0 0 205.249 9.932 A 10.353 10.353 0 0 0 203 9.7 L 179.5 9.7 A 11.091 11.091 0 0 0 177.009 9.965 A 7.569 7.569 0 0 0 173.7 11.6 A 6.241 6.241 0 0 0 171.527 16.004 A 8.714 8.714 0 0 0 171.5 16.7 L 171.5 42.2 A 8.619 8.619 0 0 0 171.754 44.355 A 5.93 5.93 0 0 0 173.65 47.45 A 7.268 7.268 0 0 0 176.547 48.943 Q 177.625 49.233 178.901 49.288 A 14.057 14.057 0 0 0 179.5 49.3 Z M 14.2 9.6 L 14.2 31 L 41.4 31 A 14.368 14.368 0 0 0 43.564 30.85 Q 46.345 30.425 47.6 28.8 A 8.119 8.119 0 0 0 49.245 24.585 A 10.49 10.49 0 0 0 49.3 23.5 L 49.3 17.2 Q 49.3 14 47.6 11.8 Q 46.336 10.164 43.578 9.745 A 13.863 13.863 0 0 0 41.5 9.6 L 14.2 9.6 Z M 125.8 19.5 L 125.8 17.2 Q 125.8 14 124.1 11.8 Q 122.836 10.164 120.078 9.745 A 13.863 13.863 0 0 0 118 9.6 L 90.7 9.6 L 90.7 27 Q 95.1 27.3 98.8 27.4 Q 102.5 27.5 105.7 27.5 Q 109.5 27.5 112.5 27.35 A 194.681 194.681 0 0 0 115.265 27.193 Q 116.575 27.109 117.745 27.013 A 117.743 117.743 0 0 0 117.9 27 Q 122.3 26.5 124.05 24.55 Q 125.8 22.6 125.8 19.5 Z" vector-effect="non-scaling-stroke"/></g></svg>